<svg id="레이어_1" data-name="레이어 1" xmlns="http://www.w3.org/2000/svg" viewBox="0 0 568.41 103.78"><defs><style>.cls-1{fill:#363636;}.cls-2{fill:#616161;}</style></defs><rect class="cls-1" x="464.69" width="12.83" height="79.17"/><path class="cls-1" d="M493,343.7H476.13a28,28,0,0,0,.15-2.93v-4.56H432.74v9.11h30.44c-.81,4.62-6.48,18.15-32.9,26l3.46,7.22s30.59-5.85,39.89-25.68H493v8.44H470.55v9.11H493v12.81a48.35,48.35,0,0,0-18.52-3.28c-19.57,0-31.35,8.53-31.35,19.05s11.78,19,31.35,19,31.35-8.53,31.35-19V333.09H493Zm-18.53,65.17c-11.57,0-18.53-4.43-18.53-9.92s7-9.93,18.53-9.93S493,393.46,493,399,486,408.87,474.46,408.87Z" transform="translate(-115.97 -333.09)"/><path class="cls-1" d="M652.16,379.64H677.1v-9.1H626.83V345.32H677.1v-9.11H614v36.16a7.27,7.27,0,0,0,7.28,7.27h18.07v19.2H607.09V408h77.29v-9.11H652.16Z" transform="translate(-115.97 -333.09)"/><path class="cls-1" d="M522.93,345.32h30.13c-1.59,12.73-8.55,33.69-33.5,45.62l4.08,8.06C562.26,384.31,567,349.59,567,338.94v-2.73H522.93Z" transform="translate(-115.97 -333.09)"/><rect class="cls-2" x="97.83" y="0.01" width="85.59" height="29.04"/><path class="cls-1" d="M290.33,397.24,213.8,436.87V406l85.6-43.88v19.3C299.4,388,296.59,394,290.33,397.24Z" transform="translate(-115.97 -333.09)"/><rect class="cls-2" x="195.68" y="0.01" width="87.53" height="29.04"/><rect class="cls-2" y="0.01" width="85.58" height="29.04"/><path class="cls-1" d="M192.49,397.24,116,436.87V406l85.59-43.88v19.3C201.56,388,198.75,394,192.49,397.24Z" transform="translate(-115.97 -333.09)"/><path class="cls-1" d="M311.65,387.53v14.89a14.14,14.14,0,0,0,14.15,14.15h73.38v-29Z" transform="translate(-115.97 -333.09)"/></svg>