<?xml version="1.0" encoding="UTF-8"?>
<!DOCTYPE svg PUBLIC "-//W3C//DTD SVG 1.1//EN" "http://www.w3.org/Graphics/SVG/1.1/DTD/svg11.dtd">
<svg xmlns="http://www.w3.org/2000/svg" version="1.1" width="1417px" height="1417px" style="shape-rendering:geometricPrecision; text-rendering:geometricPrecision; image-rendering:optimizeQuality; fill-rule:evenodd; clip-rule:evenodd" xmlns:xlink="http://www.w3.org/1999/xlink">
<g><path style="opacity:1" fill="#fefefe" d="M -0.5,-0.5 C 471.833,-0.5 944.167,-0.5 1416.5,-0.5C 1416.5,471.833 1416.5,944.167 1416.5,1416.5C 944.167,1416.5 471.833,1416.5 -0.5,1416.5C -0.5,944.167 -0.5,471.833 -0.5,-0.5 Z"/></g>
<g><path style="opacity:1" fill="#231817" d="M 943.5,234.5 C 936.701,235.094 930.034,235.761 923.5,236.5C 907.155,238.162 892.155,234.662 878.5,226C 870.087,222.862 861.754,219.529 853.5,216C 849.12,211.952 844.454,208.285 839.5,205C 830.499,202.97 824.665,206.47 822,215.5C 820.947,230.941 822.947,245.941 828,260.5C 831.019,263.203 833.019,266.536 834,270.5C 839.192,275.029 844.359,279.529 849.5,284C 859.625,286.696 869.625,289.696 879.5,293C 883.841,293.093 888.174,293.093 892.5,293C 893.833,293.667 894.833,294.667 895.5,296C 898.618,297.147 901.618,298.48 904.5,300C 908.177,300.108 911.843,300.108 915.5,300C 917.429,302.438 919.762,304.272 922.5,305.5C 925.035,303.805 927.702,302.305 930.5,301C 934,300.833 937.5,300.667 941,300.5C 953.344,301.504 965.678,302.504 978,303.5C 1001.81,301.802 1025.64,301.302 1049.5,302C 1052.1,302.92 1054.77,303.587 1057.5,304C 1078.12,306.048 1098.78,306.882 1119.5,306.5C 1118.5,311.5 1120.5,313.5 1125.5,312.5C 1126.5,312.5 1127.5,312.5 1128.5,312.5C 1128.18,317.695 1128.51,322.695 1129.5,327.5C 1121.55,330.039 1121.55,333.039 1129.5,336.5C 1127.53,339.246 1126.03,342.246 1125,345.5C 1121.66,348.352 1117.83,350.019 1113.5,350.5C 1113.5,352.833 1113.5,355.167 1113.5,357.5C 1110.57,357.716 1107.9,357.049 1105.5,355.5C 1096.89,357.325 1088.23,358.825 1079.5,360C 1078.53,362.805 1076.86,363.305 1074.5,361.5C 1065.93,364.553 1057.09,365.22 1048,363.5C 1041.75,364.893 1035.41,365.56 1029,365.5C 1016.97,364.415 1004.97,364.415 993,365.5C 985.855,362.996 978.688,362.996 971.5,365.5C 960.211,363.186 948.877,363.186 937.5,365.5C 923.161,364.98 909.161,363.646 895.5,361.5C 890.331,360.619 884.998,359.952 879.5,359.5C 875.423,358.63 871.423,357.463 867.5,356C 857.515,350.892 847.181,346.559 836.5,343C 824.046,336.528 813.213,328.028 804,317.5C 794.966,304.432 787.8,290.432 782.5,275.5C 781.62,272.738 780.454,270.071 779,267.5C 778.821,263.975 778.321,260.641 777.5,257.5C 773.909,246.465 771.909,235.131 771.5,223.5C 773.125,211.415 775.292,199.415 778,187.5C 791.916,169.29 810.416,159.623 833.5,158.5C 844.488,159.761 855.488,160.928 866.5,162C 872.366,163.4 878.033,165.4 883.5,168C 886.167,168.333 888.833,168.667 891.5,169C 893.901,171.062 896.567,172.729 899.5,174C 920.374,181.707 942.041,185.707 964.5,186C 992.181,187.23 1019.85,187.23 1047.5,186C 1052.12,186.271 1056.12,184.937 1059.5,182C 1066,181.474 1072,179.474 1077.5,176C 1081.68,172.099 1083.52,167.265 1083,161.5C 1084.38,158.344 1085.55,155.178 1086.5,152C 1086.31,148.704 1084.64,146.371 1081.5,145C 1077.22,143.85 1072.89,143.017 1068.5,142.5C 1050.49,142.261 1032.49,142.761 1014.5,144C 1009.61,142.776 1004.61,142.109 999.5,142C 994.67,139.918 989.67,138.418 984.5,137.5C 976.934,133.934 970.934,128.601 966.5,121.5C 974.35,116.12 982.517,111.454 991,107.5C 993.016,107.74 995.016,108.074 997,108.5C 1012.4,106.517 1027.9,105.35 1043.5,105C 1051.48,101.965 1059.48,101.799 1067.5,104.5C 1075.54,101.981 1083.54,101.981 1091.5,104.5C 1097.2,102.862 1102.53,103.695 1107.5,107C 1111.44,107.993 1115.44,108.66 1119.5,109C 1123.6,111.147 1127.6,113.48 1131.5,116C 1136.98,121.81 1142.81,127.31 1149,132.5C 1149.67,135.167 1149.67,137.833 1149,140.5C 1145.91,142.926 1143.57,145.926 1142,149.5C 1140.43,162.018 1137.1,174.018 1132,185.5C 1132.33,194.559 1129.66,202.559 1124,209.5C 1123.75,215.499 1121.25,220.333 1116.5,224C 1112.14,226.513 1108.14,229.513 1104.5,233C 1098.12,235.311 1091.62,237.145 1085,238.5C 1072.86,237.933 1060.86,236.933 1049,235.5C 1036.79,236.067 1024.62,237.067 1012.5,238.5C 1001.75,237.592 991.083,236.092 980.5,234C 967.993,233.173 955.66,233.34 943.5,234.5 Z"/></g>
<g><path style="opacity:1" fill="#2a2323" d="M 614.5,236.5 C 616.628,235.719 616.795,234.719 615,233.5C 612.31,235.854 611.81,235.187 613.5,231.5C 632.358,234.711 651.025,233.544 669.5,228C 672,227.115 674.333,225.948 676.5,224.5C 675.167,224.167 673.833,223.833 672.5,223.5C 661.29,225.323 650.29,224.657 639.5,221.5C 639.5,220.167 639.5,218.833 639.5,217.5C 656.573,221.516 673.573,221.016 690.5,216C 691.5,215.167 692.5,214.333 693.5,213.5C 693,213.167 692.5,212.833 692,212.5C 679.817,215.076 667.651,215.076 655.5,212.5C 655.5,211.167 655.5,209.833 655.5,208.5C 675.811,213.234 694.478,209.901 711.5,198.5C 714.712,196.637 716.712,193.97 717.5,190.5C 713.486,190.334 709.486,190.501 705.5,191C 690.865,198.963 675.199,203.463 658.5,204.5C 658.5,203.167 658.5,201.833 658.5,200.5C 672.456,199.511 685.79,196.011 698.5,190C 706.184,185.986 713.017,180.819 719,174.5C 720.45,172.243 721.617,169.91 722.5,167.5C 713.565,172.303 704.565,177.136 695.5,182C 687.593,185.963 679.259,188.129 670.5,188.5C 670.5,187.5 670.5,186.5 670.5,185.5C 686.207,181.814 700.873,175.647 714.5,167C 721.042,162.125 726.542,156.292 731,149.5C 732.079,146.937 732.579,144.271 732.5,141.5C 727.901,141.8 723.401,141.467 719,140.5C 708.237,155.446 694.071,165.446 676.5,170.5C 676.5,169.167 676.5,167.833 676.5,166.5C 687.63,163.601 697.297,158.101 705.5,150C 714.621,139.868 723.454,129.368 732,118.5C 733.366,116.63 734.533,114.63 735.5,112.5C 733.45,111.337 731.45,111.504 729.5,113C 714.456,126.034 698.79,138.368 682.5,150C 670.64,156.062 658.306,160.729 645.5,164C 630.497,170.247 617.997,179.747 608,192.5C 601.983,201.75 600.15,211.75 602.5,222.5C 601.778,222.918 601.278,223.584 601,224.5C 598.712,224.263 596.212,224.263 593.5,224.5C 593.587,221.402 593.087,221.068 592,223.5C 591.617,222.944 591.117,222.611 590.5,222.5C 593.858,210.258 591.358,199.258 583,189.5C 574.312,179.389 563.812,171.555 551.5,166C 540.027,162.398 528.693,158.398 517.5,154C 499.561,142.201 482.561,129.201 466.5,115C 464.182,113.007 461.516,111.841 458.5,111.5C 458.841,114.516 460.007,117.182 462,119.5C 471.209,129.707 480.043,140.207 488.5,151C 496.638,158.403 505.971,163.736 516.5,167C 517.93,168.88 517.596,170.38 515.5,171.5C 499.491,165.325 486.158,155.492 475.5,142C 470.582,142.102 465.582,141.935 460.5,141.5C 460.439,145.049 461.273,148.382 463,151.5C 466.799,156.301 470.966,160.801 475.5,165C 489.678,175.085 505.344,181.919 522.5,185.5C 522.5,186.5 522.5,187.5 522.5,188.5C 504.037,185.94 487.371,178.94 472.5,167.5C 471.432,169.187 471.599,170.854 473,172.5C 477.375,177.043 481.875,181.376 486.5,185.5C 491.141,188.654 496.141,190.988 501.5,192.5C 506.085,195.14 511.085,196.806 516.5,197.5C 522.444,200.089 528.778,201.089 535.5,200.5C 535.5,201.833 535.5,203.167 535.5,204.5C 517.655,203.83 500.988,198.997 485.5,190C 482.5,189.333 479.5,189.333 476.5,190C 475.978,190.561 475.645,191.228 475.5,192C 487.163,205.819 502.163,211.985 520.5,210.5C 526.274,210.533 531.941,209.866 537.5,208.5C 537.762,209.978 537.429,211.311 536.5,212.5C 524.682,215.106 512.849,215.106 501,212.5C 500.5,212.667 500,212.833 499.5,213C 502.719,216.479 506.719,218.479 511.5,219C 525.681,221.436 539.681,220.936 553.5,217.5C 553.5,218.833 553.5,220.167 553.5,221.5C 549.951,221.439 546.618,222.273 543.5,224C 535.167,224.333 526.833,224.667 518.5,225C 519.551,226.385 520.884,227.385 522.5,228C 540.507,233.183 558.84,234.683 577.5,232.5C 578.806,233.467 579.473,234.801 579.5,236.5C 557.467,239.995 536.134,237.495 515.5,229C 513.438,227.468 512.104,225.468 511.5,223C 502.593,221.899 496.259,217.399 492.5,209.5C 483.284,205.941 476.284,199.941 471.5,191.5C 472.712,187.706 475.379,185.539 479.5,185C 476.279,181.779 473.113,178.613 470,175.5C 467.538,172.068 467.038,168.401 468.5,164.5C 462.813,158.622 458.813,151.788 456.5,144C 456.167,141.333 457.167,139.333 459.5,138C 463.537,137.393 467.537,137.56 471.5,138.5C 469.711,134.188 466.877,130.521 463,127.5C 460.333,123.5 457.667,119.5 455,115.5C 453.52,108.45 456.353,105.95 463.5,108C 479.88,121.382 496.547,134.382 513.5,147C 526.439,152.981 539.773,157.981 553.5,162C 567.382,168.875 579.215,178.375 589,190.5C 591.864,195.929 594.031,201.595 595.5,207.5C 595.676,212.88 595.342,218.213 594.5,223.5C 595.978,223.762 597.311,223.429 598.5,222.5C 597.561,218.235 597.228,213.902 597.5,209.5C 599.903,195.871 606.57,184.704 617.5,176C 623.897,171.273 630.564,166.94 637.5,163C 651.785,158.46 665.785,153.126 679.5,147C 696.264,134.739 712.597,121.905 728.5,108.5C 732.31,105.662 735.81,105.995 739,109.5C 738.378,115.427 736.045,120.76 732,125.5C 727.795,128.85 724.629,132.85 722.5,137.5C 735.055,134.884 739.222,139.55 735,151.5C 731.98,156.199 728.48,160.533 724.5,164.5C 727.096,167.915 726.929,171.249 724,174.5C 720.318,178.015 716.818,181.682 713.5,185.5C 716.36,186.18 718.86,187.513 721,189.5C 721.667,191.167 721.667,192.833 721,194.5C 715.759,201.561 708.925,206.561 700.5,209.5C 698.482,214.69 694.815,218.523 689.5,221C 686.832,221.567 684.166,222.067 681.5,222.5C 681.415,224.929 680.415,226.929 678.5,228.5C 657.936,237.26 636.603,239.927 614.5,236.5 Z"/></g>
<g><path style="opacity:1" fill="#f8f7f6" d="M 590.5,222.5 C 586.814,224.795 582.814,226.628 578.5,228C 577.62,229.356 577.286,230.856 577.5,232.5C 558.84,234.683 540.507,233.183 522.5,228C 520.884,227.385 519.551,226.385 518.5,225C 526.833,224.667 535.167,224.333 543.5,224C 546.618,222.273 549.951,221.439 553.5,221.5C 553.5,220.167 553.5,218.833 553.5,217.5C 539.681,220.936 525.681,221.436 511.5,219C 506.719,218.479 502.719,216.479 499.5,213C 500,212.833 500.5,212.667 501,212.5C 512.849,215.106 524.682,215.106 536.5,212.5C 537.429,211.311 537.762,209.978 537.5,208.5C 531.941,209.866 526.274,210.533 520.5,210.5C 502.163,211.985 487.163,205.819 475.5,192C 475.645,191.228 475.978,190.561 476.5,190C 479.5,189.333 482.5,189.333 485.5,190C 500.988,198.997 517.655,203.83 535.5,204.5C 535.5,203.167 535.5,201.833 535.5,200.5C 528.778,201.089 522.444,200.089 516.5,197.5C 511.767,195.256 506.767,193.589 501.5,192.5C 496.141,190.988 491.141,188.654 486.5,185.5C 481.875,181.376 477.375,177.043 473,172.5C 471.599,170.854 471.432,169.187 472.5,167.5C 487.371,178.94 504.037,185.94 522.5,188.5C 522.5,187.5 522.5,186.5 522.5,185.5C 505.344,181.919 489.678,175.085 475.5,165C 470.966,160.801 466.799,156.301 463,151.5C 461.273,148.382 460.439,145.049 460.5,141.5C 465.582,141.935 470.582,142.102 475.5,142C 486.158,155.492 499.491,165.325 515.5,171.5C 517.596,170.38 517.93,168.88 516.5,167C 505.971,163.736 496.638,158.403 488.5,151C 480.043,140.207 471.209,129.707 462,119.5C 460.007,117.182 458.841,114.516 458.5,111.5C 461.516,111.841 464.182,113.007 466.5,115C 482.561,129.201 499.561,142.201 517.5,154C 528.693,158.398 540.027,162.398 551.5,166C 563.812,171.555 574.312,179.389 583,189.5C 591.358,199.258 593.858,210.258 590.5,222.5 Z"/></g>
<g><path style="opacity:1" fill="#b7b3b0" d="M 501.5,192.5 C 506.767,193.589 511.767,195.256 516.5,197.5C 511.085,196.806 506.085,195.14 501.5,192.5 Z"/></g>
<g><path style="opacity:1" fill="#f8f7f7" d="M 613.5,231.5 C 608.385,230.269 604.718,227.269 602.5,222.5C 600.15,211.75 601.983,201.75 608,192.5C 617.997,179.747 630.497,170.247 645.5,164C 658.306,160.729 670.64,156.062 682.5,150C 698.79,138.368 714.456,126.034 729.5,113C 731.45,111.504 733.45,111.337 735.5,112.5C 734.533,114.63 733.366,116.63 732,118.5C 723.454,129.368 714.621,139.868 705.5,150C 697.297,158.101 687.63,163.601 676.5,166.5C 676.5,167.833 676.5,169.167 676.5,170.5C 694.071,165.446 708.237,155.446 719,140.5C 723.401,141.467 727.901,141.8 732.5,141.5C 732.579,144.271 732.079,146.937 731,149.5C 726.542,156.292 721.042,162.125 714.5,167C 700.873,175.647 686.207,181.814 670.5,185.5C 670.5,186.5 670.5,187.5 670.5,188.5C 679.259,188.129 687.593,185.963 695.5,182C 704.565,177.136 713.565,172.303 722.5,167.5C 721.617,169.91 720.45,172.243 719,174.5C 713.017,180.819 706.184,185.986 698.5,190C 685.79,196.011 672.456,199.511 658.5,200.5C 658.5,201.833 658.5,203.167 658.5,204.5C 675.199,203.463 690.865,198.963 705.5,191C 709.486,190.501 713.486,190.334 717.5,190.5C 716.712,193.97 714.712,196.637 711.5,198.5C 694.478,209.901 675.811,213.234 655.5,208.5C 655.5,209.833 655.5,211.167 655.5,212.5C 667.651,215.076 679.817,215.076 692,212.5C 692.5,212.833 693,213.167 693.5,213.5C 692.5,214.333 691.5,215.167 690.5,216C 673.573,221.016 656.573,221.516 639.5,217.5C 639.5,218.833 639.5,220.167 639.5,221.5C 650.29,224.657 661.29,225.323 672.5,223.5C 673.833,223.833 675.167,224.167 676.5,224.5C 674.333,225.948 672,227.115 669.5,228C 651.025,233.544 632.358,234.711 613.5,231.5 Z"/></g>
<g><path style="opacity:1" fill="#b4aeab" d="M 595.5,207.5 C 596.167,208.167 596.833,208.833 597.5,209.5C 597.228,213.902 597.561,218.235 598.5,222.5C 597.311,223.429 595.978,223.762 594.5,223.5C 595.342,218.213 595.676,212.88 595.5,207.5 Z"/></g>
<g><path style="opacity:1" fill="#231817" d="M 602.5,222.5 C 604.718,227.269 608.385,230.269 613.5,231.5C 611.81,235.187 612.31,235.854 615,233.5C 616.795,234.719 616.628,235.719 614.5,236.5C 615.498,243.195 617.998,249.195 622,254.5C 622.375,266.921 623.542,279.254 625.5,291.5C 626.34,297.526 626.34,303.526 625.5,309.5C 625.667,310.167 625.833,310.833 626,311.5C 626.333,310.5 626.667,309.5 627,308.5C 627.186,311.036 627.686,313.369 628.5,315.5C 628.33,316.822 628.663,317.989 629.5,319C 634.611,320.006 639.778,320.506 645,320.5C 659.218,319.535 673.385,318.035 687.5,316C 715.524,315.445 743.524,316.112 771.5,318C 774.86,321.097 778.86,322.264 783.5,321.5C 784.115,325.008 785.115,328.341 786.5,331.5C 785.5,331.5 784.5,331.5 783.5,331.5C 783.953,334.463 785.453,336.796 788,338.5C 788.49,339.793 788.657,341.127 788.5,342.5C 790.5,342.833 792.5,343.167 794.5,343.5C 794.5,344.833 794.5,346.167 794.5,347.5C 792.401,346.769 790.401,346.769 788.5,347.5C 789.246,348.736 789.579,350.07 789.5,351.5C 785.92,350.923 782.92,351.923 780.5,354.5C 772.175,355.293 763.841,355.96 755.5,356.5C 735.498,356.682 715.498,356.682 695.5,356.5C 688.45,355.247 681.45,355.58 674.5,357.5C 660.169,357.976 645.835,358.476 631.5,359C 630.299,359.903 629.465,361.069 629,362.5C 628.675,395.293 630.675,427.959 635,460.5C 635.333,469.5 635.667,478.5 636,487.5C 639.046,491.868 639.213,496.368 636.5,501C 638.357,527.132 639.191,553.298 639,579.5C 638.163,581.007 636.996,581.507 635.5,581C 634.994,578.468 633.827,576.302 632,574.5C 632.019,576.107 632.185,577.774 632.5,579.5C 628.452,579.72 624.618,580.72 621,582.5C 619.779,581.728 618.779,580.728 618,579.5C 617.152,581.874 615.819,583.874 614,585.5C 612.606,584.387 611.439,583.053 610.5,581.5C 609.232,582.428 607.899,582.595 606.5,582C 604.767,579.725 602.933,577.558 601,575.5C 600,576.833 599,576.833 598,575.5C 597,572.833 596,570.167 595,567.5C 593.667,568.833 592.333,568.833 591,567.5C 588.382,561.028 586.382,554.362 585,547.5C 582.977,518.821 583.143,490.155 585.5,461.5C 582.353,442.317 581.02,422.983 581.5,403.5C 582.301,382.82 582.301,362.153 581.5,341.5C 582.378,329.181 583.045,316.848 583.5,304.5C 581.478,286.028 581.145,267.528 582.5,249C 582.333,246.833 582.167,244.667 582,242.5C 580.337,240.842 579.504,238.842 579.5,236.5C 579.473,234.801 578.806,233.467 577.5,232.5C 577.286,230.856 577.62,229.356 578.5,228C 582.814,226.628 586.814,224.795 590.5,222.5C 591.117,222.611 591.617,222.944 592,223.5C 593.087,221.068 593.587,221.402 593.5,224.5C 596.212,224.263 598.712,224.263 601,224.5C 601.278,223.584 601.778,222.918 602.5,222.5 Z"/></g>
<g><path style="opacity:1" fill="#c2bebd" d="M 943.5,234.5 C 943.013,235.473 942.513,236.473 942,237.5C 935.924,236.524 929.758,236.19 923.5,236.5C 930.034,235.761 936.701,235.094 943.5,234.5 Z"/></g>
<g><path style="opacity:1" fill="#d3d1ce" d="M 777.5,257.5 C 778.321,260.641 778.821,263.975 779,267.5C 780.454,270.071 781.62,272.738 782.5,275.5C 780.908,274.398 780.075,275.065 780,277.5C 777.8,271.092 776.966,264.425 777.5,257.5 Z"/></g>
<g><path style="opacity:1" fill="#231817" d="M 264.5,353.5 C 263.34,365.66 263.173,377.993 264,390.5C 264.383,391.056 264.883,391.389 265.5,391.5C 265.167,393.5 264.833,395.5 264.5,397.5C 265.5,397.5 266.5,397.5 267.5,397.5C 268.167,400.167 268.833,402.833 269.5,405.5C 273.512,404.887 275.512,406.554 275.5,410.5C 278.861,408.516 280.528,409.516 280.5,413.5C 283.518,413.494 286.184,412.494 288.5,410.5C 289.429,411.689 289.762,413.022 289.5,414.5C 292.354,413.974 295.021,412.974 297.5,411.5C 299.861,411.326 302.194,410.993 304.5,410.5C 305.404,411.209 305.737,412.209 305.5,413.5C 313.069,413.941 320.569,414.607 328,415.5C 328.399,415.272 328.565,414.938 328.5,414.5C 330.048,414.821 330.715,415.821 330.5,417.5C 331.791,417.737 332.791,417.404 333.5,416.5C 337.339,415.707 341.339,415.04 345.5,414.5C 346.26,415.489 347.427,416.155 349,416.5C 350.711,416.561 352.044,415.894 353,414.5C 353.717,415.044 354.217,415.711 354.5,416.5C 359.994,417.279 365.661,417.279 371.5,416.5C 376.378,416.215 381.211,415.548 386,414.5C 392.151,416.282 397.817,415.282 403,411.5C 404.626,412.018 406.293,412.352 408,412.5C 423.853,410.81 439.02,406.81 453.5,400.5C 455.412,401.851 457.578,402.518 460,402.5C 465.198,401.399 470.198,399.733 475,397.5C 477.096,398.487 479.096,398.154 481,396.5C 483.154,397.252 485.32,397.419 487.5,397C 488.346,394.82 489.846,393.32 492,392.5C 494.497,393.908 496.997,395.241 499.5,396.5C 502.213,394.618 505.047,392.951 508,391.5C 511.565,391.753 514.398,393.253 516.5,396C 518.473,396.495 520.473,396.662 522.5,396.5C 522.5,397.5 522.5,398.5 522.5,399.5C 523.5,399.5 524.5,399.5 525.5,399.5C 525.5,400.5 525.5,401.5 525.5,402.5C 526.791,402.737 527.791,402.404 528.5,401.5C 529.209,400.596 530.209,400.263 531.5,400.5C 531.151,403.99 532.651,406.323 536,407.5C 538.211,414.145 541.545,420.145 546,425.5C 546.078,430.714 544.912,435.714 542.5,440.5C 539.893,441.318 537.226,441.818 534.5,442C 532.659,445.628 529.659,447.628 525.5,448C 522.328,455.171 517.661,461.171 511.5,466C 495.719,471.095 479.719,475.262 463.5,478.5C 458.647,478.813 453.98,479.479 449.5,480.5C 448.833,480.5 448.167,480.5 447.5,480.5C 443.511,480.116 439.845,480.783 436.5,482.5C 428.406,482.584 420.406,483.417 412.5,485C 405.144,485.727 397.811,485.56 390.5,484.5C 386.456,485.005 382.456,485.671 378.5,486.5C 372.127,485.302 365.793,485.635 359.5,487.5C 360.311,488.216 360.978,489.05 361.5,490C 360.303,491.52 358.803,492.687 357,493.5C 356.792,491.141 356.626,488.974 356.5,487C 353.356,487.095 350.356,486.928 347.5,486.5C 347.833,488.5 348.167,490.5 348.5,492.5C 347.167,492.5 345.833,492.5 344.5,492.5C 344.5,490.5 344.5,488.5 344.5,486.5C 340.298,486.183 336.298,486.517 332.5,487.5C 327.445,487.848 322.612,487.181 318,485.5C 313.674,486.497 309.341,487.497 305,488.5C 299.219,487.302 293.386,486.469 287.5,486C 279.684,483.304 271.684,481.138 263.5,479.5C 252.494,474.014 241.494,468.68 230.5,463.5C 230.265,459.197 227.931,457.53 223.5,458.5C 221.014,451.866 216.848,446.533 211,442.5C 206.687,433.897 203.353,424.897 201,415.5C 200.13,401.093 200.796,386.759 203,372.5C 203.906,367.874 205.573,363.54 208,359.5C 208.774,355.853 209.441,352.186 210,348.5C 214.522,340.596 218.856,332.596 223,324.5C 223.37,320.478 225.037,317.145 228,314.5C 228.494,312.866 228.66,311.199 228.5,309.5C 229.5,309.5 230.5,309.5 231.5,309.5C 231.433,307.599 231.767,305.766 232.5,304C 237.771,297.318 242.771,290.485 247.5,283.5C 250.409,280.423 253.742,277.923 257.5,276C 258.87,274.559 259.87,272.892 260.5,271C 264.246,268.8 267.912,266.634 271.5,264.5C 272.282,278.161 272.449,291.828 272,305.5C 269.2,321.441 266.7,337.441 264.5,353.5 Z"/></g>
<g><path style="opacity:1" fill="#473f3c" d="M 625.5,291.5 C 627.28,299.264 628.28,307.264 628.5,315.5C 627.686,313.369 627.186,311.036 627,308.5C 626.667,309.5 626.333,310.5 626,311.5C 625.833,310.833 625.667,310.167 625.5,309.5C 626.34,303.526 626.34,297.526 625.5,291.5 Z"/></g>
<g><path style="opacity:1" fill="#9b9997" d="M 1125.5,312.5 C 1126.57,311.566 1127.9,311.232 1129.5,311.5C 1129.5,316.833 1129.5,322.167 1129.5,327.5C 1128.51,322.695 1128.18,317.695 1128.5,312.5C 1127.5,312.5 1126.5,312.5 1125.5,312.5 Z"/></g>
<g><path style="opacity:1" fill="#aea8a5" d="M 695.5,356.5 C 688.49,356.668 681.49,357.001 674.5,357.5C 681.45,355.58 688.45,355.247 695.5,356.5 Z"/></g>
<g><path style="opacity:1" fill="#bfbdbc" d="M 879.5,359.5 C 884.998,359.952 890.331,360.619 895.5,361.5C 891.154,361.666 886.821,361.499 882.5,361C 881.263,360.768 880.263,360.268 879.5,359.5 Z"/></g>
<g><path style="opacity:1" fill="#676160" d="M 264.5,353.5 C 264.205,366.216 264.538,378.883 265.5,391.5C 264.883,391.389 264.383,391.056 264,390.5C 263.173,377.993 263.34,365.66 264.5,353.5 Z"/></g>
<g><path style="opacity:1" fill="#a09d99" d="M 522.5,396.5 C 523.467,397.806 524.801,398.473 526.5,398.5C 526.285,400.179 526.952,401.179 528.5,401.5C 527.791,402.404 526.791,402.737 525.5,402.5C 525.5,401.5 525.5,400.5 525.5,399.5C 524.5,399.5 523.5,399.5 522.5,399.5C 522.5,398.5 522.5,397.5 522.5,396.5 Z"/></g>
<g><path style="opacity:1" fill="#241918" d="M 1079.5,405.5 C 1090.61,404.608 1100.61,407.442 1109.5,414C 1112.84,416.557 1113.01,419.057 1110,421.5C 1109.81,423.9 1109.31,426.234 1108.5,428.5C 1106.77,429.015 1105.11,429.682 1103.5,430.5C 1104.55,432.102 1103.88,432.935 1101.5,433C 1098.38,438.23 1093.72,440.896 1087.5,441C 1084.83,441.167 1082.17,441.333 1079.5,441.5C 1055.47,438.76 1031.47,438.927 1007.5,442C 989.5,442.667 971.5,442.667 953.5,442C 951.094,441.694 948.927,440.861 947,439.5C 945.699,439.96 944.366,440.294 943,440.5C 929.38,439.147 915.88,437.48 902.5,435.5C 897.474,436.309 892.474,436.642 887.5,436.5C 886.034,435.865 884.7,435.031 883.5,434C 864.995,433.395 846.661,431.395 828.5,428C 827.809,426.933 827.309,425.766 827,424.5C 822.761,421.655 820.261,417.655 819.5,412.5C 874.144,414.796 928.81,415.963 983.5,416C 1015.85,414.401 1047.85,410.901 1079.5,405.5 Z"/></g>
<g><path style="opacity:1" fill="#615e5b" d="M 304.5,410.5 C 302.194,410.993 299.861,411.326 297.5,411.5C 299.655,409.466 301.988,409.133 304.5,410.5 Z"/></g>
<g><path style="opacity:1" fill="#a39e9e" d="M 328.5,414.5 C 329.209,413.596 330.209,413.263 331.5,413.5C 331.285,415.179 331.952,416.179 333.5,416.5C 332.791,417.404 331.791,417.737 330.5,417.5C 330.715,415.821 330.048,414.821 328.5,414.5 Z"/></g>
<g><path style="opacity:1" fill="#544d4b" d="M 371.5,416.5 C 365.661,417.279 359.994,417.279 354.5,416.5C 360.339,415.721 366.006,415.721 371.5,416.5 Z"/></g>
<g><path style="opacity:1" fill="#241918" d="M 1104.5,487.5 C 1104.08,496.829 1103.74,506.163 1103.5,515.5C 1101.26,538.037 1100.09,560.704 1100,583.5C 1096.03,594.132 1089.2,602.299 1079.5,608C 1063.56,611.377 1047.56,613.544 1031.5,614.5C 1031.5,613.5 1031.5,612.5 1031.5,611.5C 1028.83,611.5 1026.17,611.5 1023.5,611.5C 1022.55,610.848 1021.38,610.514 1020,610.5C 1016.14,610.695 1012.64,611.695 1009.5,613.5C 986.606,619.708 963.273,620.875 939.5,617C 935.789,616.156 932.123,615.156 928.5,614C 927.773,612.601 927.273,611.101 927,609.5C 913.339,597.189 908.006,581.856 911,563.5C 915.21,545.655 915.377,527.822 911.5,510C 913.879,503.299 917.213,497.132 921.5,491.5C 924.339,489.58 927.339,487.913 930.5,486.5C 931.429,485.311 931.762,483.978 931.5,482.5C 938.177,485.053 944.843,484.886 951.5,482C 963.341,481.655 975.174,481.155 987,480.5C 993.188,480.971 999.355,481.638 1005.5,482.5C 1014.15,481.701 1022.82,481.368 1031.5,481.5C 1038.99,482.656 1046.66,482.822 1054.5,482C 1055.06,481.617 1055.39,481.117 1055.5,480.5C 1060.57,478.901 1065.9,478.067 1071.5,478C 1081.52,477.168 1091.52,477.334 1101.5,478.5C 1103.57,481.119 1104.57,484.119 1104.5,487.5 Z"/></g>
<g><path style="opacity:1" fill="#a89e9d" d="M 447.5,480.5 C 444.054,481.687 440.387,482.354 436.5,482.5C 439.845,480.783 443.511,480.116 447.5,480.5 Z"/></g>
<g><path style="opacity:1" fill="#bdbaba" d="M 463.5,478.5 C 461.219,479.339 458.885,480.339 456.5,481.5C 454.253,480.626 451.92,480.292 449.5,480.5C 453.98,479.479 458.647,478.813 463.5,478.5 Z"/></g>
<g><path style="opacity:1" fill="#74706d" d="M 1055.5,480.5 C 1055.39,481.117 1055.06,481.617 1054.5,482C 1046.66,482.822 1038.99,482.656 1031.5,481.5C 1039.56,481.77 1047.56,481.437 1055.5,480.5 Z"/></g>
<g><path style="opacity:1" fill="#b5b2b2" d="M 332.5,487.5 C 336.298,486.517 340.298,486.183 344.5,486.5C 344.5,488.5 344.5,490.5 344.5,492.5C 345.833,492.5 347.167,492.5 348.5,492.5C 347.365,494.213 345.698,494.88 343.5,494.5C 343.5,492.167 343.5,489.833 343.5,487.5C 339.833,487.5 336.167,487.5 332.5,487.5 Z"/></g>
<g><path style="opacity:1" fill="#fcfcfc" d="M 1065.5,497.5 C 1068.83,497.5 1072.17,497.5 1075.5,497.5C 1072.18,515.402 1069.34,533.402 1067,551.5C 1064.67,556.167 1062.33,560.833 1060,565.5C 1058.79,567.049 1057.29,568.215 1055.5,569C 1049.03,569.903 1042.69,571.403 1036.5,573.5C 1025.3,575.801 1013.96,576.967 1002.5,577C 1000.21,577.822 997.878,578.489 995.5,579C 978.76,579.988 962.093,579.321 945.5,577C 944.584,576.626 943.75,576.126 943,575.5C 942.714,553.49 942.214,531.49 941.5,509.5C 964.486,508.742 987.486,508.242 1010.5,508C 1025.64,507.065 1040.64,505.065 1055.5,502C 1059.06,500.768 1062.39,499.268 1065.5,497.5 Z"/></g>
<g><path style="opacity:1" fill="#bababa" d="M 1104.5,487.5 C 1105.79,496.874 1105.46,506.207 1103.5,515.5C 1103.74,506.163 1104.08,496.829 1104.5,487.5 Z"/></g>
<g><path style="opacity:1" fill="#241918" d="M 1318.5,584.5 C 1326.07,584.199 1331.9,587.199 1336,593.5C 1340.6,602.952 1342.77,612.952 1342.5,623.5C 1341.2,634.939 1339.37,646.272 1337,657.5C 1336.33,678.833 1336.33,700.167 1337,721.5C 1338.33,736.152 1339,750.818 1339,765.5C 1335.15,770.53 1331.82,775.863 1329,781.5C 1323.25,782.641 1317.42,782.807 1311.5,782C 1305.99,776.144 1302.15,769.31 1300,761.5C 1297.64,758.131 1294.47,755.964 1290.5,755C 1265.5,755.931 1240.5,755.597 1215.5,754C 1203.51,753.339 1192.18,750.339 1181.5,745C 1180.13,743.66 1178.8,742.326 1177.5,741C 1180.57,738.073 1184.24,736.073 1188.5,735C 1196.06,733.128 1203.73,731.795 1211.5,731C 1238.8,728.99 1266.13,727.823 1293.5,727.5C 1297.02,716.763 1298.19,705.763 1297,694.5C 1296.5,694 1296,693.5 1295.5,693C 1276.86,694.105 1258.19,694.772 1239.5,695C 1212.6,692.44 1186.6,686.44 1161.5,677C 1165.47,673.452 1170.14,671.452 1175.5,671C 1200.83,671.182 1226.16,671.182 1251.5,671C 1267.21,670.622 1282.88,669.622 1298.5,668C 1300.47,663.227 1302.3,658.393 1304,653.5C 1306.88,638.213 1309.55,622.879 1312,607.5C 1313.71,599.67 1315.87,592.003 1318.5,584.5 Z"/></g>
<g><path style="opacity:1" fill="#231918" d="M 524.5,588.5 C 535.172,588.333 545.839,588.5 556.5,589C 563.742,590.226 570.742,592.226 577.5,595C 578.914,600.285 578.414,605.451 576,610.5C 571.143,614.512 565.643,617.346 559.5,619C 535.006,621.648 510.506,624.148 486,626.5C 482.833,626.167 479.667,625.833 476.5,625.5C 473.509,622.339 470.675,619.005 468,615.5C 464.983,608.681 464.816,601.848 467.5,595C 486.622,592.599 505.622,590.432 524.5,588.5 Z"/></g>
<g><path style="opacity:1" fill="#b6b1ae" d="M 1023.5,611.5 C 1018.83,612.167 1014.17,612.833 1009.5,613.5C 1012.64,611.695 1016.14,610.695 1020,610.5C 1021.38,610.514 1022.55,610.848 1023.5,611.5 Z"/></g>
<g><path style="opacity:1" fill="#251a18" d="M 735.5,673.5 C 740.414,673.638 745.081,672.972 749.5,671.5C 757.209,671.343 764.876,670.676 772.5,669.5C 773.145,668.354 773.978,667.354 775,666.5C 776.722,651.16 778.722,635.826 781,620.5C 784.768,606.153 791.768,604.487 802,615.5C 805.704,623.042 807.704,631.042 808,639.5C 808.418,663.524 809.418,687.524 811,711.5C 811.809,735.517 811.476,759.517 810,783.5C 802.145,796.836 790.645,804.836 775.5,807.5C 773.025,771.213 772.025,734.88 772.5,698.5C 766.854,697.973 761.187,697.64 755.5,697.5C 742.205,698.828 728.872,699.495 715.5,699.5C 690.443,698.704 665.443,697.371 640.5,695.5C 636.07,691.565 632.57,686.898 630,681.5C 628.539,677.564 629.705,675.064 633.5,674C 655.513,673.667 677.513,674.167 699.5,675.5C 711.514,674.999 723.514,674.332 735.5,673.5 Z"/></g>
<g><path style="opacity:1" fill="#231818" d="M 566.5,707.5 C 560.392,713.293 561.392,717.293 569.5,719.5C 614.743,740.121 656.076,766.787 693.5,799.5C 701.851,810.572 706.851,822.905 708.5,836.5C 706.409,836.682 704.409,836.348 702.5,835.5C 694.736,841.707 686.069,843.874 676.5,842C 665.725,834.719 655.725,826.552 646.5,817.5C 621.21,798.701 596.543,779.201 572.5,759C 564.985,751.652 557.652,744.152 550.5,736.5C 547.809,734.797 545.143,733.13 542.5,731.5C 539.043,733.063 535.71,734.896 532.5,737C 525.801,743.364 519.468,750.031 513.5,757C 511.833,758 510.167,759 508.5,760C 506.728,765.045 504.062,769.545 500.5,773.5C 497.444,774.196 494.444,775.03 491.5,776C 484.349,783.154 476.349,789.154 467.5,794C 446.209,802.044 437.709,794.877 442,772.5C 442.725,770.051 443.725,767.717 445,765.5C 454.787,759.69 463.953,753.023 472.5,745.5C 475.442,744.181 478.442,743.015 481.5,742C 503.126,725.167 523.126,706.501 541.5,686C 540.042,684.051 538.042,683.218 535.5,683.5C 512.019,690.068 488.019,693.235 463.5,693C 449.744,692.02 445.077,684.853 449.5,671.5C 457.859,670.997 466.192,670.163 474.5,669C 503.804,662.17 533.471,658.504 563.5,658C 570.607,659.109 577.274,661.442 583.5,665C 590.552,671.676 591.386,679.176 586,687.5C 579.229,694.176 572.729,700.843 566.5,707.5 Z"/></g>
<g><path style="opacity:1" fill="#534948" d="M 749.5,671.5 C 745.081,672.972 740.414,673.638 735.5,673.5C 739.919,672.028 744.586,671.362 749.5,671.5 Z"/></g>
<g><path style="opacity:1" fill="#d3cdcb" d="M 566.5,707.5 C 563.724,711.96 565.058,714.794 570.5,716C 568.273,716.704 567.94,717.871 569.5,719.5C 561.392,717.293 560.392,713.293 566.5,707.5 Z"/></g>
<g><path style="opacity:1" fill="#241918" d="M 1078.5,785.5 C 1077.79,786.404 1076.79,786.737 1075.5,786.5C 1075.22,788.415 1075.55,790.081 1076.5,791.5C 1077.38,795.818 1079.05,799.818 1081.5,803.5C 1082.32,804.386 1083.32,804.719 1084.5,804.5C 1084.56,807.05 1085.89,808.55 1088.5,809C 1092.48,809.941 1096.48,810.774 1100.5,811.5C 1102.03,811.471 1103.2,810.804 1104,809.5C 1104.39,810.428 1105.05,811.095 1106,811.5C 1112.18,810.207 1118.35,808.874 1124.5,807.5C 1125.17,807.833 1125.83,808.167 1126.5,808.5C 1128.98,805.923 1131.48,805.923 1134,808.5C 1135.65,806.737 1137.49,806.404 1139.5,807.5C 1146.45,805.415 1153.62,804.082 1161,803.5C 1164.23,804.472 1166.06,803.139 1166.5,799.5C 1170.52,800.547 1174.52,800.713 1178.5,800C 1180.16,801.444 1180.82,803.278 1180.5,805.5C 1181.93,805.421 1183.26,805.754 1184.5,806.5C 1187.5,811.165 1190.5,815.832 1193.5,820.5C 1192.26,822.691 1191.42,825.024 1191,827.5C 1175.23,841.369 1156.73,847.869 1135.5,847C 1119.44,847.781 1103.44,847.114 1087.5,845C 1077.46,842.912 1067.79,840.079 1058.5,836.5C 1057.03,832.244 1054.53,828.578 1051,825.5C 1049.4,822.591 1047.9,819.591 1046.5,816.5C 1041.69,797.789 1040.36,778.789 1042.5,759.5C 1044.1,750.522 1045.6,741.522 1047,732.5C 1050.54,725.283 1054.54,718.283 1059,711.5C 1061.02,709.478 1063.02,707.478 1065,705.5C 1066.26,705.759 1067.26,706.426 1068,707.5C 1069.66,712.831 1072.33,717.498 1076,721.5C 1076.67,722.833 1077.33,724.167 1078,725.5C 1078.17,729.333 1078.33,733.167 1078.5,737C 1077.49,749.529 1076.16,762.029 1074.5,774.5C 1074.64,777.867 1074.98,781.201 1075.5,784.5C 1076.79,784.263 1077.79,784.596 1078.5,785.5 Z"/></g>
<g><path style="opacity:1" fill="#241a18" d="M 935.5,776.5 C 937.509,778.065 939.843,779.065 942.5,779.5C 960.771,789.469 979.438,798.636 998.5,807C 1002.92,810.492 1007.08,814.326 1011,818.5C 1011.45,822.686 1010.62,826.52 1008.5,830C 1004.51,831.911 1000.34,833.411 996,834.5C 993.189,833.713 990.356,832.88 987.5,832C 960.806,818.15 934.139,803.983 907.5,789.5C 904.4,790.758 901.4,792.258 898.5,794C 880.347,808.242 862.013,822.242 843.5,836C 840.125,835.515 838.459,833.349 838.5,829.5C 837.5,829.5 836.5,829.5 835.5,829.5C 834.569,824.294 834.236,819.127 834.5,814C 836.818,810.344 839.151,806.677 841.5,803C 856.688,795.13 871.355,786.464 885.5,777C 897.521,768.304 909.521,759.638 921.5,751C 933.604,740.895 946.271,731.561 959.5,723C 962.117,722.178 964.784,721.678 967.5,721.5C 967.664,724.187 967.497,726.854 967,729.5C 962.019,736.808 956.686,743.808 951,750.5C 941.737,756.928 933.237,764.261 925.5,772.5C 928.584,774.418 931.918,775.751 935.5,776.5 Z"/></g>
<g><path style="opacity:1" fill="#aba6a3" d="M 935.5,776.5 C 938.491,776.166 940.824,777.166 942.5,779.5C 939.843,779.065 937.509,778.065 935.5,776.5 Z"/></g>
<g><path style="opacity:1" fill="#a79e9d" d="M 1078.5,785.5 C 1079.04,785.56 1079.38,785.893 1079.5,786.5C 1078.68,787.386 1077.68,787.719 1076.5,787.5C 1076.5,788.833 1076.5,790.167 1076.5,791.5C 1075.55,790.081 1075.22,788.415 1075.5,786.5C 1076.79,786.737 1077.79,786.404 1078.5,785.5 Z"/></g>
<g><path style="opacity:1" fill="#231817" d="M 1288.5,910.5 C 1290.95,909.935 1293.29,909.268 1295.5,908.5C 1301.97,905.82 1308.63,903.32 1315.5,901C 1325.35,899.787 1335.02,897.787 1344.5,895C 1346.12,894.385 1347.45,893.385 1348.5,892C 1350.17,891.333 1351.83,891.333 1353.5,892C 1357,899.285 1356,905.785 1350.5,911.5C 1345.42,913.911 1340.42,916.411 1335.5,919C 1325.08,921.547 1315.08,925.214 1305.5,930C 1302.21,930.882 1298.88,931.548 1295.5,932C 1294.83,932.667 1294.17,933.333 1293.5,934C 1282.17,936.667 1270.84,939.333 1259.5,942C 1249.7,942.72 1241.03,940.054 1233.5,934C 1230.33,930.833 1227.17,927.667 1224,924.5C 1221.23,918.416 1219.23,912.083 1218,905.5C 1217.33,894.167 1217.33,882.833 1218,871.5C 1221.43,861.317 1224.26,850.984 1226.5,840.5C 1227.5,840.5 1228.5,840.5 1229.5,840.5C 1230.82,837.976 1231.99,835.31 1233,832.5C 1236.55,828.946 1240.05,825.446 1243.5,822C 1244.5,821.833 1245.5,821.667 1246.5,821.5C 1249.06,822.524 1251.72,823.358 1254.5,824C 1259.36,829.906 1262.69,836.573 1264.5,844C 1261.83,854.686 1259.66,865.52 1258,876.5C 1256.28,886.523 1256.28,896.523 1258,906.5C 1259.71,907.308 1260.54,908.641 1260.5,910.5C 1269.81,913.021 1279.15,913.021 1288.5,910.5 Z"/></g>
<g><path style="opacity:1" fill="#241919" d="M 922.5,834.5 C 925.866,835.612 928.699,837.612 931,840.5C 941.596,865.715 947.596,892.049 949,919.5C 950.312,921.955 951.478,924.455 952.5,927C 968.949,928.109 985.282,927.276 1001.5,924.5C 1005.66,924.859 1009.83,925.192 1014,925.5C 1021.96,924.246 1029.96,923.246 1038,922.5C 1050.47,923.305 1062.97,923.805 1075.5,924C 1085.12,926.961 1092.28,932.795 1097,941.5C 1098.24,950.529 1094.4,956.029 1085.5,958C 1083.79,959.378 1082.45,961.045 1081.5,963C 1080.17,963.167 1078.83,963.333 1077.5,963.5C 1060.2,961.967 1042.87,960.967 1025.5,960.5C 1017.72,962.157 1009.88,963.49 1002,964.5C 985.178,963.748 968.344,963.248 951.5,963C 934.162,961.446 916.828,959.446 899.5,957C 887.369,954.85 876.369,950.183 866.5,943C 865.978,942.439 865.645,941.772 865.5,941C 867.21,939.389 869.043,937.889 871,936.5C 871.199,934.598 872.033,933.098 873.5,932C 887.746,929.825 902.079,928.991 916.5,929.5C 916.666,923.491 916.499,917.491 916,911.5C 911.731,890.384 910.231,869.05 911.5,847.5C 915.536,843.466 919.202,839.132 922.5,834.5 Z"/></g>
<g><path style="opacity:1" fill="#231817" d="M 802.5,895.5 C 802.676,900.88 802.342,906.213 801.5,911.5C 793.847,926.99 782.514,939.156 767.5,948C 757.168,950.417 747.168,949.417 737.5,945C 695.507,925.621 689.84,898.288 720.5,863C 725.1,858.115 730.6,854.615 737,852.5C 748.462,849.26 759.962,846.26 771.5,843.5C 774.989,844.238 778.323,845.571 781.5,847.5C 781.898,854.533 783.231,861.367 785.5,868C 789.305,873.777 793.471,879.277 798,884.5C 799.513,888.188 801.013,891.855 802.5,895.5 Z"/></g>
<g><path style="opacity:1" fill="#f8f7f6" d="M 753.5,879.5 C 756.385,880.545 758.552,882.545 760,885.5C 760.543,896.819 758.876,907.819 755,918.5C 752.282,921.879 748.949,924.546 745,926.5C 741.211,924.277 738.877,920.943 738,916.5C 736.446,901.26 741.613,888.926 753.5,879.5 Z"/></g>
<g><path style="opacity:1" fill="#c5bfbf" d="M 802.5,895.5 C 803.648,899.981 803.815,904.648 803,909.5C 802.722,910.416 802.222,911.082 801.5,911.5C 802.342,906.213 802.676,900.88 802.5,895.5 Z"/></g>
<g><path style="opacity:1" fill="#8d8d8d" d="M 1295.5,908.5 C 1293.29,909.268 1290.95,909.935 1288.5,910.5C 1290.28,908.656 1292.61,907.99 1295.5,908.5 Z"/></g>
<g><path style="opacity:1" fill="#241918" d="M 502.5,959.5 C 500.393,958.532 498.059,958.198 495.5,958.5C 495.5,959.5 495.5,960.5 495.5,961.5C 493.373,967.89 492.039,974.557 491.5,981.5C 491.132,982.91 490.299,983.91 489,984.5C 488.682,988.195 488.182,991.862 487.5,995.5C 488.918,1005.47 490.418,1015.47 492,1025.5C 493.399,1033.47 497.232,1039.97 503.5,1045C 509.017,1046.09 514.35,1047.76 519.5,1050C 544.188,1051.02 567.521,1046.68 589.5,1037C 597.061,1036.67 604.561,1035.84 612,1034.5C 614.59,1034.38 616.923,1035.04 619,1036.5C 625.854,1048.29 624.854,1059.29 616,1069.5C 597.174,1078.84 577.34,1085.34 556.5,1089C 532.349,1091.31 510.349,1085.64 490.5,1072C 487.247,1070.96 483.914,1070.3 480.5,1070C 477.928,1063.09 474.095,1056.92 469,1051.5C 464.158,1042.81 461.158,1033.48 460,1023.5C 459.694,1013.82 459.194,1004.15 458.5,994.5C 458.352,991.728 459.019,989.228 460.5,987C 460.167,986 459.833,985 459.5,984C 462.925,974.721 465.758,965.221 468,955.5C 471.069,947.912 474.569,940.579 478.5,933.5C 480.028,932.139 481.695,930.972 483.5,930C 510.502,930.028 537.502,928.861 564.5,926.5C 567.259,926.542 569.925,927.042 572.5,928C 573.878,929.713 575.545,931.047 577.5,932C 581.272,932.406 584.939,933.239 588.5,934.5C 589.03,938.529 590.03,942.362 591.5,946C 589.778,950.218 587.445,954.052 584.5,957.5C 557.238,960.698 529.904,961.365 502.5,959.5 Z"/></g>
<g><path style="opacity:1" fill="#241a18" d="M 141.5,944.5 C 162.853,944.914 184.186,944.914 205.5,944.5C 210.137,945.22 214.803,945.72 219.5,946C 220.579,946.956 221.745,947.789 223,948.5C 223.333,951.167 223.667,953.833 224,956.5C 225.158,956.998 225.991,957.831 226.5,959C 224.095,961.503 221.428,963.836 218.5,966C 208.956,967.903 199.29,969.069 189.5,969.5C 179.582,967.885 169.582,966.719 159.5,966C 152.416,964.293 146.416,960.793 141.5,955.5C 140.112,953.891 139.112,952.058 138.5,950C 139.848,948.317 140.848,946.483 141.5,944.5 Z"/></g>
<g><path style="opacity:1" fill="#928888" d="M 502.5,959.5 C 499.789,959.185 497.456,959.852 495.5,961.5C 495.5,960.5 495.5,959.5 495.5,958.5C 498.059,958.198 500.393,958.532 502.5,959.5 Z"/></g>
<g><path style="opacity:1" fill="#241918" d="M 351.5,1050.5 C 348.333,1050.4 345.333,1051.07 342.5,1052.5C 341.501,1069.49 341.167,1086.49 341.5,1103.5C 342.284,1117.89 335.617,1124.05 321.5,1122C 313.22,1120.98 307.72,1116.48 305,1108.5C 300.255,1072.5 301.922,1036.84 310,1001.5C 312.237,992.557 314.737,983.724 317.5,975C 329.696,970.824 338.529,974.658 344,986.5C 344.083,996.847 343.583,1007.18 342.5,1017.5C 342.518,1021.08 342.852,1024.58 343.5,1028C 348.975,1027.3 354.475,1027.47 360,1028.5C 381.624,1024.17 403.458,1022 425.5,1022C 433.813,1025.8 436.98,1032.3 435,1041.5C 433.165,1045.47 429.998,1047.63 425.5,1048C 410.106,1048.52 394.773,1049.68 379.5,1051.5C 370.171,1051 360.837,1050.67 351.5,1050.5 Z"/></g>
<g><path style="opacity:1" fill="#b3b1ad" d="M 113.5,985.5 C 119.873,984.436 126.206,984.769 132.5,986.5C 126.162,986.233 119.829,985.9 113.5,985.5 Z"/></g>
<g><path style="opacity:1" fill="#251a19" d="M 113.5,985.5 C 119.829,985.9 126.162,986.233 132.5,986.5C 155.337,985.92 178.17,986.586 201,988.5C 216.558,987.933 232.058,987.1 247.5,986C 250.418,987.709 253.252,989.542 256,991.5C 255.351,993.832 255.518,996.166 256.5,998.5C 254.303,1000.52 251.636,1001.69 248.5,1002C 247.257,1003.15 246.257,1004.49 245.5,1006C 225.831,1006.7 206.164,1007.04 186.5,1007C 168.544,1005.08 150.544,1003.75 132.5,1003C 126.181,1001.92 120.181,999.921 114.5,997C 109.832,993.266 109.499,989.433 113.5,985.5 Z"/></g>
<g><path style="opacity:1" fill="#251a19" d="M 897.5,1128.5 C 895.539,1135.09 894.872,1142.09 895.5,1149.5C 895.186,1156.98 894.019,1164.31 892,1171.5C 890.032,1173.83 887.865,1175.83 885.5,1177.5C 884.328,1177.08 883.328,1176.41 882.5,1175.5C 880.958,1176.75 879.458,1176.75 878,1175.5C 877.452,1168.16 876.952,1160.83 876.5,1153.5C 876.509,1148.85 876.843,1144.18 877.5,1139.5C 876.664,1136.41 875.997,1133.24 875.5,1130C 876.221,1126.18 876.887,1122.34 877.5,1118.5C 877.36,1115.96 876.694,1113.62 875.5,1111.5C 878.111,1107.71 878.111,1103.88 875.5,1100C 877.227,1096.72 877.894,1093.22 877.5,1089.5C 878.128,1082.09 877.461,1075.09 875.5,1068.5C 876.968,1067.22 877.635,1065.55 877.5,1063.5C 878.488,1058.36 878.821,1053.03 878.5,1047.5C 876.542,1036.53 878.209,1026.2 883.5,1016.5C 887.325,1012.99 891.492,1012.66 896,1015.5C 897.285,1015.05 898.452,1014.38 899.5,1013.5C 900.192,1014.03 900.692,1014.69 901,1015.5C 901.913,1030.6 901.079,1045.6 898.5,1060.5C 898.818,1061.65 899.484,1062.48 900.5,1063C 898.834,1065.48 898.001,1068.31 898,1071.5C 897.752,1088.34 897.252,1105.18 896.5,1122C 896.566,1124.26 896.899,1126.42 897.5,1128.5 Z"/></g>
<g><path style="opacity:1" fill="#241a18" d="M 175.5,1090.5 C 170.848,1090 166.181,1089.67 161.5,1089.5C 155.421,1088.59 151.254,1085.26 149,1079.5C 145.644,1073.28 144.644,1066.61 146,1059.5C 147.764,1052.64 150.597,1046.31 154.5,1040.5C 161.369,1032.19 169.202,1025.19 178,1019.5C 180.598,1020.3 182.931,1021.63 185,1023.5C 185.56,1027.99 185.227,1032.32 184,1036.5C 186.096,1038.27 188.429,1039.6 191,1040.5C 193.819,1048.11 196.486,1055.77 199,1063.5C 200.375,1067.94 199.041,1071.28 195,1073.5C 194.47,1077.58 193.637,1081.58 192.5,1085.5C 188.976,1085.93 185.976,1087.43 183.5,1090C 180.854,1090.5 178.187,1090.66 175.5,1090.5 Z"/></g>
<g><path style="opacity:1" fill="#f5f4f2" d="M 167.5,1045.5 C 172.849,1047.35 176.349,1051.02 178,1056.5C 180.129,1061.66 180.796,1067 180,1072.5C 176.857,1076.96 173.023,1077.63 168.5,1074.5C 162.913,1069.31 161.08,1062.98 163,1055.5C 164.232,1052.04 165.732,1048.7 167.5,1045.5 Z"/></g>
<g><path style="opacity:1" fill="#251a19" d="M 831.5,1038.5 C 836.739,1037.96 840.572,1039.96 843,1044.5C 843.803,1047.24 844.803,1049.91 846,1052.5C 848.144,1088.14 848.811,1123.81 848,1159.5C 847.667,1161.83 847.333,1164.17 847,1166.5C 840.985,1174.37 833.151,1179.04 823.5,1180.5C 822.229,1154.63 821.229,1128.8 820.5,1103C 805.996,1102.5 791.496,1102.67 777,1103.5C 760.547,1102.1 744.047,1101.27 727.5,1101C 725.317,1098.65 722.984,1096.48 720.5,1094.5C 718.754,1091.73 718.421,1088.9 719.5,1086C 720.833,1085.67 722.167,1085.33 723.5,1085C 744.498,1085.13 765.498,1085.13 786.5,1085C 797.813,1083.78 809.147,1082.78 820.5,1082C 822.317,1080.2 823.484,1078.03 824,1075.5C 824.143,1065.72 825.143,1056.06 827,1046.5C 828.765,1043.97 830.265,1041.3 831.5,1038.5 Z"/></g>
<g><path style="opacity:1" fill="#7b7374" d="M 878.5,1047.5 C 878.821,1053.03 878.488,1058.36 877.5,1063.5C 877.759,1059.76 877.426,1056.09 876.5,1052.5C 877.028,1050.66 877.694,1049 878.5,1047.5 Z"/></g>
<g><path style="opacity:1" fill="#241918" d="M 136.5,1122.5 C 135.186,1124.9 135.186,1127.4 136.5,1130C 148.674,1130.83 160.674,1130.66 172.5,1129.5C 181.5,1129.5 190.5,1129.5 199.5,1129.5C 212.719,1130.12 226.053,1131.12 239.5,1132.5C 247.282,1135.56 254.948,1138.89 262.5,1142.5C 262.515,1150.34 259.515,1156.84 253.5,1162C 247.828,1162.44 242.162,1162.94 236.5,1163.5C 190.138,1155.86 143.472,1154.19 96.5,1158.5C 82.7351,1158.58 75.2351,1151.91 74,1138.5C 74.3076,1137.69 74.8076,1137.03 75.5,1136.5C 88.2878,1134.56 101.121,1132.9 114,1131.5C 116.165,1111.53 116.832,1091.53 116,1071.5C 117.908,1064.79 121.408,1063.79 126.5,1068.5C 127.128,1070.26 128.128,1071.76 129.5,1073C 131.587,1073.79 133.421,1074.96 135,1076.5C 136.933,1092.14 137.433,1107.47 136.5,1122.5 Z"/></g>
<g><path style="opacity:1" fill="#c9c4c1" d="M 351.5,1050.5 C 350.391,1051.29 349.058,1051.79 347.5,1052C 346.874,1052.75 346.374,1053.58 346,1054.5C 344.989,1053.66 343.822,1053.33 342.5,1053.5C 342.83,1070.34 342.497,1087.01 341.5,1103.5C 341.167,1086.49 341.501,1069.49 342.5,1052.5C 345.333,1051.07 348.333,1050.4 351.5,1050.5 Z"/></g>
<g><path style="opacity:1" fill="#231918" d="M 705.5,1050.5 C 709.49,1049.82 711.157,1051.49 710.5,1055.5C 709.457,1064.59 705.957,1072.59 700,1079.5C 695.695,1083.39 691.529,1087.39 687.5,1091.5C 700.269,1105.12 714.603,1116.62 730.5,1126C 741.602,1130.25 751.602,1136.41 760.5,1144.5C 763.354,1148.21 765.687,1152.21 767.5,1156.5C 765.376,1158.61 763.71,1160.94 762.5,1163.5C 755.156,1161.73 747.823,1159.9 740.5,1158C 729.071,1149.25 717.071,1141.25 704.5,1134C 694.521,1126.02 686.354,1116.52 680,1105.5C 679.506,1103.87 679.34,1102.2 679.5,1100.5C 678.07,1100.42 676.736,1100.75 675.5,1101.5C 665.513,1109.49 655.847,1117.82 646.5,1126.5C 639.079,1132.14 630.746,1134.64 621.5,1134C 618.03,1129.62 617.53,1124.79 620,1119.5C 633.517,1107.65 647.35,1096.15 661.5,1085C 675.5,1075 689.5,1065 703.5,1055C 705.037,1053.89 705.703,1052.39 705.5,1050.5 Z"/></g>
<g><path style="opacity:1" fill="#7b7370" d="M 875.5,1068.5 C 877.461,1075.09 878.128,1082.09 877.5,1089.5C 876.801,1082.6 876.134,1075.6 875.5,1068.5 Z"/></g>
<g><path style="opacity:1" fill="#241919" d="M 1145.5,1083.5 C 1156.66,1081.83 1163.49,1086.5 1166,1097.5C 1167.65,1104.74 1168.65,1112.08 1169,1119.5C 1169.33,1139.83 1169.67,1160.17 1170,1180.5C 1172.51,1195.76 1173.84,1211.09 1174,1226.5C 1173.89,1231.81 1172.06,1236.31 1168.5,1240C 1163.59,1241.79 1158.92,1244.12 1154.5,1247C 1152.17,1247.67 1149.83,1247.67 1147.5,1247C 1144.92,1244.79 1142.09,1242.96 1139,1241.5C 1136.37,1234.07 1134.7,1226.4 1134,1218.5C 1133.8,1197.8 1133.3,1177.14 1132.5,1156.5C 1124.92,1157.95 1117.26,1158.62 1109.5,1158.5C 1083.54,1156.17 1057.54,1154.34 1031.5,1153C 1026.82,1150.99 1023.49,1147.65 1021.5,1143C 1026.78,1135.36 1034.11,1131.36 1043.5,1131C 1072.51,1129.37 1101.35,1130.87 1130,1135.5C 1130.83,1135.17 1131.67,1134.83 1132.5,1134.5C 1135.25,1123.34 1136.08,1112.01 1135,1100.5C 1134.27,1097.38 1132.77,1094.71 1130.5,1092.5C 1135.1,1088.71 1140.1,1085.71 1145.5,1083.5 Z"/></g>
<g><path style="opacity:1" fill="#241918" d="M 471.5,1083.5 C 479.192,1085.19 483.859,1089.86 485.5,1097.5C 480.411,1115.74 477.578,1134.41 477,1153.5C 475.532,1158.77 474.365,1164.1 473.5,1169.5C 487.887,1166.15 502.221,1162.32 516.5,1158C 538.627,1153.69 560.96,1152.02 583.5,1153C 596.17,1154.53 608.837,1156.03 621.5,1157.5C 621.649,1163.09 620.649,1168.42 618.5,1173.5C 617.5,1173.5 616.5,1173.5 615.5,1173.5C 615.5,1174.5 615.5,1175.5 615.5,1176.5C 611.183,1177.84 606.85,1179.34 602.5,1181C 588.899,1181.75 575.399,1181.25 562,1179.5C 545.233,1179.99 528.733,1182.16 512.5,1186C 509.726,1187.78 506.726,1189.11 503.5,1190C 487.315,1193.73 471.315,1198.06 455.5,1203C 446.08,1205.42 436.747,1205.42 427.5,1203C 421.025,1199.31 420.358,1194.98 425.5,1190C 430.642,1186.29 435.975,1182.96 441.5,1180C 447.338,1178.29 453.005,1176.12 458.5,1173.5C 458.822,1154.2 459.655,1134.87 461,1115.5C 463.568,1104.57 467.068,1093.91 471.5,1083.5 Z"/></g>
<g><path style="opacity:1" fill="#78706f" d="M 161.5,1089.5 C 166.181,1089.67 170.848,1090 175.5,1090.5C 170.787,1091.5 166.12,1091.16 161.5,1089.5 Z"/></g>
<g><path style="opacity:1" fill="#241a18" d="M 957.5,1125.5 C 966.173,1125.33 974.84,1125.5 983.5,1126C 984.804,1126.8 985.471,1127.97 985.5,1129.5C 985,1131.5 984.5,1133.5 984,1135.5C 981.246,1137.13 978.412,1138.63 975.5,1140C 961.205,1142.66 947.205,1146.32 933.5,1151C 929.051,1154.4 926.551,1158.9 926,1164.5C 925.194,1170.08 925.361,1175.58 926.5,1181C 946.364,1178.19 966.364,1176.19 986.5,1175C 996.167,1174.33 1005.83,1174.33 1015.5,1175C 1021.5,1174.67 1026.67,1176.5 1031,1180.5C 1031.31,1184.13 1032.48,1187.46 1034.5,1190.5C 1033.22,1192.15 1031.55,1193.31 1029.5,1194C 1011.3,1197.42 992.965,1198.59 974.5,1197.5C 961.714,1201.4 948.714,1202.23 935.5,1200C 934.034,1199.36 932.7,1198.53 931.5,1197.5C 930.417,1198.36 930.251,1199.36 931,1200.5C 933.55,1206.1 937.383,1210.6 942.5,1214C 947.289,1216.15 951.956,1218.48 956.5,1221C 975.481,1222.57 994.481,1222.24 1013.5,1220C 1022.29,1217.62 1030.96,1214.62 1039.5,1211C 1048,1210 1054.5,1213.17 1059,1220.5C 1060.02,1224.32 1059.52,1227.82 1057.5,1231C 1048.72,1234.03 1040.05,1237.36 1031.5,1241C 1023.46,1242.74 1015.46,1244.74 1007.5,1247C 980.049,1248.25 954.382,1242.25 930.5,1229C 916.731,1216.97 908.564,1201.8 906,1183.5C 903.741,1170.73 904.074,1158.07 907,1145.5C 910.817,1136.36 917.65,1130.86 927.5,1129C 937.81,1129.16 947.81,1127.99 957.5,1125.5 Z"/></g>
<g><path style="opacity:1" fill="#d1ccc9" d="M 136.5,1122.5 C 136.085,1125.37 137.085,1127.53 139.5,1129C 150.495,1129.5 161.495,1129.67 172.5,1129.5C 160.674,1130.66 148.674,1130.83 136.5,1130C 135.186,1127.4 135.186,1124.9 136.5,1122.5 Z"/></g>
<g><path style="opacity:1" fill="#c3c0bd" d="M 239.5,1132.5 C 226.053,1131.12 212.719,1130.12 199.5,1129.5C 209.707,1129.8 219.873,1129.46 230,1128.5C 231.784,1129.31 233.617,1129.98 235.5,1130.5C 237.155,1129.77 238.821,1129.61 240.5,1130C 238.381,1130.34 238.047,1131.18 239.5,1132.5 Z"/></g>
<g><path style="opacity:1" fill="#aba7aa" d="M 897.5,1128.5 C 896.902,1135.63 896.235,1142.63 895.5,1149.5C 894.872,1142.09 895.539,1135.09 897.5,1128.5 Z"/></g>
<g><path style="opacity:1" fill="#8c8683" d="M 877.5,1139.5 C 876.843,1144.18 876.509,1148.85 876.5,1153.5C 875.837,1151.36 875.503,1149.03 875.5,1146.5C 875.529,1143.73 876.195,1141.4 877.5,1139.5 Z"/></g>
<g><path style="opacity:1" fill="#231918" d="M 671.5,1176.5 C 674.247,1176.19 676.914,1176.52 679.5,1177.5C 686.324,1184.48 690.491,1192.81 692,1202.5C 692.723,1217.9 694.056,1233.23 696,1248.5C 697.913,1256.33 701.413,1263.33 706.5,1269.5C 717.126,1273.52 728.126,1276.02 739.5,1277C 743.5,1277.67 747.5,1277.67 751.5,1277C 767.882,1274.26 783.882,1270.26 799.5,1265C 808.055,1263.94 816.222,1261.78 824,1258.5C 829.313,1260 833.647,1263 837,1267.5C 836.798,1270.23 836.964,1272.89 837.5,1275.5C 833.793,1278.58 830.793,1282.24 828.5,1286.5C 822.385,1288.71 816.052,1289.88 809.5,1290C 799.822,1295.45 789.488,1298.45 778.5,1299C 773.903,1300.59 769.236,1301.92 764.5,1303C 755.559,1303.01 746.726,1303.85 738,1305.5C 718.611,1306.49 701.111,1301.33 685.5,1290C 673.163,1278.5 665.663,1264.33 663,1247.5C 659.476,1224.94 658.642,1202.27 660.5,1179.5C 664.397,1178.94 668.063,1177.94 671.5,1176.5 Z"/></g>
<g><path style="opacity:1" fill="#8a807f" d="M 365.5,1185.5 C 366.926,1187.68 367.592,1190.18 367.5,1193C 367.492,1194.71 367.158,1196.21 366.5,1197.5C 366.495,1193.47 366.162,1189.47 365.5,1185.5 Z"/></g>
<g><path style="opacity:1" fill="#241918" d="M 365.5,1185.5 C 366.162,1189.47 366.495,1193.47 366.5,1197.5C 362.835,1205.8 360.335,1214.47 359,1223.5C 353.76,1238.21 343.26,1245.05 327.5,1244C 314.14,1244.75 300.807,1244.41 287.5,1243C 274.172,1239.67 261.505,1234.67 249.5,1228C 247.866,1227.51 246.199,1227.34 244.5,1227.5C 241.36,1226.36 238.027,1226.19 234.5,1227C 232.68,1227.2 231.347,1228.03 230.5,1229.5C 228.549,1230.72 227.049,1232.38 226,1234.5C 219.189,1257.72 227.689,1271.22 251.5,1275C 264.407,1277.41 277.407,1278.91 290.5,1279.5C 308.001,1280.44 325.668,1280.44 343.5,1279.5C 349.481,1281 355.481,1282.5 361.5,1284C 364.308,1284.6 366.808,1285.76 369,1287.5C 370.197,1292.96 371.697,1298.29 373.5,1303.5C 372.858,1307.28 370.858,1310.11 367.5,1312C 356.402,1316.16 344.902,1317.99 333,1317.5C 304.842,1316.91 277.008,1313.74 249.5,1308C 234.394,1302.56 222.56,1293.06 214,1279.5C 212.926,1275.68 211.093,1272.35 208.5,1269.5C 201.671,1248.15 206.004,1229.32 221.5,1213C 227.924,1207.75 235.258,1205.75 243.5,1207C 255.191,1210.34 266.524,1214.68 277.5,1220C 296.617,1226.21 315.951,1227.05 335.5,1222.5C 334.981,1213.86 335.648,1205.36 337.5,1197C 337.35,1190.33 334.017,1186.67 327.5,1186C 317.5,1185.67 307.5,1185.33 297.5,1185C 290.46,1182.96 285.627,1178.46 283,1171.5C 281.753,1165.78 283.253,1161.12 287.5,1157.5C 304.196,1156.09 320.863,1156.26 337.5,1158C 347.834,1163 356.334,1170.17 363,1179.5C 364.122,1181.41 364.955,1183.41 365.5,1185.5 Z"/></g>
<g><path style="opacity:1" fill="#241918" d="M 575.5,1213.5 C 579.436,1213.48 583.103,1214.48 586.5,1216.5C 587.169,1221.54 588.002,1226.54 589,1231.5C 594.396,1239.23 599.396,1247.23 604,1255.5C 604.667,1259.5 604.667,1263.5 604,1267.5C 599.155,1278.03 592.322,1287.2 583.5,1295C 576.497,1300.75 568.497,1302.75 559.5,1301C 547.534,1297.27 537.034,1291.1 528,1282.5C 520.938,1275.63 518.605,1267.3 521,1257.5C 525.107,1239.07 535.941,1226.57 553.5,1220C 561.119,1218.36 568.453,1216.19 575.5,1213.5 Z"/></g>
<g><path style="opacity:1" fill="#9c9695" d="M 244.5,1227.5 C 239.673,1227.22 235.007,1227.89 230.5,1229.5C 231.347,1228.03 232.68,1227.2 234.5,1227C 238.027,1226.19 241.36,1226.36 244.5,1227.5 Z"/></g>
<g><path style="opacity:1" fill="#f6f5f4" d="M 563.5,1243.5 C 565.729,1244.06 567.395,1245.39 568.5,1247.5C 569.39,1256.71 568.223,1265.71 565,1274.5C 562.974,1278.03 560.141,1280.69 556.5,1282.5C 553.434,1280.71 551.6,1278.04 551,1274.5C 549.139,1261.58 553.306,1251.24 563.5,1243.5 Z"/></g>
<g><path style="opacity:1" fill="#4e4645" d="M 343.5,1279.5 C 325.668,1280.44 308.001,1280.44 290.5,1279.5C 308.34,1279.05 326.007,1279.05 343.5,1279.5 Z"/></g>
</svg>
