<svg xmlns="http://www.w3.org/2000/svg" viewBox="0 0 879.71 222.31"><defs><style>.cls-1{isolation:isolate;}.cls-2{fill:#287db8;}.cls-3{fill:#f0a224;}.cls-4{fill:#56643e;}.cls-5{fill:#dc1e5b;}.cls-6{fill:#de2525;}.cls-7{fill:#6fb646;}.cls-8{fill:#157845;}.cls-9{fill:#73b02d;}.cls-10{fill:#d61251;}.cls-11{fill:#7c2724;}.cls-12{fill:#257ab8;}.cls-13{fill:#067039;}.cls-14{fill:#287ab7;}.cls-15{fill:#d51152;}.cls-16{fill:#73b02e;}.cls-17{fill:#eda214;}.cls-18{fill:#067139;}.cls-19{fill:#525c34;}.cls-20{fill:#59295a;}.cls-21{fill:#eea214;}.cls-22{fill:#7b822e;}.cls-23{fill:#572859;}.cls-24{fill:#505b32;}.cls-25{fill:#36a9ba;}.cls-26{fill:#6c2d2a;}.cls-27{fill:#d41919;}.cls-28{fill:#7e592d;}.cls-29{fill:#574431;}.cls-30{fill:#3c4231;}.cls-31{font-size:40px;fill:#3e3a39;font-family:JalnanOTF-KSCpc-EUC-H, Jalnan OTF;letter-spacing:0em;}.cls-32{letter-spacing:0em;}.cls-33{fill:#e50055;}.cls-34{mix-blend-mode:multiply;}.cls-35{fill:#187fc4;}.cls-36{fill:#f6ab00;}.cls-37{fill:#6fba2c;}</style></defs><g class="cls-1"><g id="레이어_1" data-name="레이어 1"><path class="cls-2" d="M425.22,250.47h0a29.41,29.41,0,0,0-29.38,29.38h-16.7a46.13,46.13,0,0,1,46.08-46.08Z" transform="translate(-57.12 -188.11)"/><path class="cls-3" d="M425.22,309.23a29.41,29.41,0,0,1-29.38-29.38h-16.7a46.12,46.12,0,0,0,46.08,46.07Z" transform="translate(-57.12 -188.11)"/><path class="cls-4" d="M387.49,271.5a8.35,8.35,0,0,0-8.35,8.35h0a8.35,8.35,0,1,0,16.7,0h0a8.35,8.35,0,0,0-8.35-8.35" transform="translate(-57.12 -188.11)"/><path class="cls-5" d="M451,299a8.29,8.29,0,0,0-5.71,2.26,29.28,29.28,0,0,1-20.09,8v16.69a45.87,45.87,0,0,0,31.52-12.47A8.36,8.36,0,0,0,451,299Z" transform="translate(-57.12 -188.11)"/><path class="cls-6" d="M425.22,309.23a8.35,8.35,0,1,0,0,16.69h0a8.35,8.35,0,1,0,0-16.69h0" transform="translate(-57.12 -188.11)"/><path class="cls-7" d="M425.22,233.77h0a45.8,45.8,0,0,1,31.94,12.88,8.35,8.35,0,1,1-11.58,12,29.24,29.24,0,0,0-20.36-8.21" transform="translate(-57.12 -188.11)"/><path class="cls-8" d="M425.22,233.77h0a8.35,8.35,0,0,0,0,16.7h0a8.35,8.35,0,0,0,0-16.7" transform="translate(-57.12 -188.11)"/><path class="cls-9" d="M480.19,235a8.35,8.35,0,0,0-8.35,8.35V316a8.35,8.35,0,0,0,8.35,8.35h0a8.35,8.35,0,1,1,0-16.69h8.35V243.34a8.35,8.35,0,0,0-8.35-8.35" transform="translate(-57.12 -188.11)"/><path class="cls-10" d="M523.19,307.63H488.54V316a8.35,8.35,0,0,1-8.35,8.35h43a8.35,8.35,0,1,0,0-16.69" transform="translate(-57.12 -188.11)"/><path class="cls-11" d="M488.54,307.63h-8.35a8.35,8.35,0,1,0,0,16.69h0a8.35,8.35,0,0,0,8.35-8.35v-8.34" transform="translate(-57.12 -188.11)"/><path class="cls-10" d="M542.09,298.9a8.35,8.35,0,0,1-8.35-8.35v-46.9a8.35,8.35,0,0,1,16.7,0v46.9a8.35,8.35,0,0,1-8.35,8.35Z" transform="translate(-57.12 -188.11)"/><path class="cls-12" d="M603,298.9a8.35,8.35,0,0,1-8.35-8.35v-46.9a8.35,8.35,0,1,1,16.7,0v46.9A8.35,8.35,0,0,1,603,298.9Z" transform="translate(-57.12 -188.11)"/><path class="cls-9" d="M572.5,326c-21,0-38.76-16.24-38.76-35.47a8.35,8.35,0,0,1,16.7,0c0,10,10.31,18.78,22.06,18.78,11.24,0,22.17-8.49,22.17-18.78a8.35,8.35,0,1,1,16.7,0c0,19.23-17.8,35.47-38.87,35.47Z" transform="translate(-57.12 -188.11)"/><path class="cls-11" d="M542.09,282.2a8.35,8.35,0,0,0-8.35,8.35h0a8.35,8.35,0,0,0,16.7,0h0a8.35,8.35,0,0,0-8.35-8.35" transform="translate(-57.12 -188.11)"/><path class="cls-13" d="M603,282.2a8.35,8.35,0,0,0-8.35,8.35h0a8.35,8.35,0,0,0,16.7,0h0A8.35,8.35,0,0,0,603,282.2" transform="translate(-57.12 -188.11)"/><path class="cls-14" d="M674.61,299.93a9.09,9.09,0,0,1-2.71,6.65c-2.66,2.59-7.11,3.95-12.94,3.95l-1,0h-.25a8.35,8.35,0,0,0-.17,16.7H659c12.93,0,20.49-4.67,24.6-8.68a25.74,25.74,0,0,0,7.76-18.61Z" transform="translate(-57.12 -188.11)"/><path class="cls-14" d="M659,233.6h0l-.34,0h.19a5.62,5.62,0,0,1,.58,0c-1.47-.11-2.92-.16-4.33-.16-17.92,0-30.27,8.58-30.72,27.08-.14,5.84,1.73,14.12,11.42,20.33,4.54,2.91,10.26,5,18,6.73h.08a8.45,8.45,0,0,0,1.72.18,8.35,8.35,0,0,0,1.76-16.51h0c-16.39-3.56-16.38-9.65-15.81-14,.62-4.82,4.75-7.62,15.6-7.05a9.5,9.5,0,0,0,1.31.09,8.63,8.63,0,0,0,8.79-7.75A8.5,8.5,0,0,0,659,233.6Z" transform="translate(-57.12 -188.11)"/><path class="cls-15" d="M658.22,250.25c4.39.32,10,2.24,16.72,5.71a8.35,8.35,0,1,0,7.67-14.83c-8.85-4.58-16.44-7-23.2-7.53h0a5.62,5.62,0,0,0-.58,0Z" transform="translate(-57.12 -188.11)"/><path class="cls-16" d="M657.25,271.26h0a8.35,8.35,0,0,1-1.76,16.51,8.45,8.45,0,0,1-1.72-.18h0c20.8,4.35,20.8,10.15,20.8,12.34h0a8.35,8.35,0,1,1,16.7,0c0-5.77-2-14-11.31-20.26-5.38-3.62-12.61-6.3-22.75-8.41m-3.53,16.32h0" transform="translate(-57.12 -188.11)"/><path class="cls-17" d="M622.81,304.71a8.35,8.35,0,0,0,2.4,11.56c7.93,5.2,18,10.57,32.33,10.94h0l.38-16.7c-10.12-.27-17.3-4.1-23.55-8.2a8.34,8.34,0,0,0-11.56,2.4Z" transform="translate(-57.12 -188.11)"/><path class="cls-18" d="M683,291.58a8.35,8.35,0,0,0-8.35,8.35h0a8.35,8.35,0,1,0,16.7,0h0a8.35,8.35,0,0,0-8.35-8.35" transform="translate(-57.12 -188.11)"/><path class="cls-19" d="M657.72,310.51a8.35,8.35,0,0,0-.18,16.7h.22a8.35,8.35,0,0,0,.21-16.7h-.25" transform="translate(-57.12 -188.11)"/><path class="cls-18" d="M655.5,271.07a8.35,8.35,0,0,0-1.78,16.51h.08a8.45,8.45,0,0,0,1.72.18,8.35,8.35,0,0,0,1.76-16.51h-.06a8.45,8.45,0,0,0-1.72-.18" transform="translate(-57.12 -188.11)"/><path class="cls-20" d="M658.8,233.58a8.33,8.33,0,1,0,.61,0h0a5.62,5.62,0,0,0-.58,0" transform="translate(-57.12 -188.11)"/><path class="cls-21" d="M765.34,251.69h-61a8.35,8.35,0,0,1,0-16.7h61a8.35,8.35,0,1,1,0,16.7Z" transform="translate(-57.12 -188.11)"/><path class="cls-9" d="M734.86,324.32a8.35,8.35,0,0,1-8.35-8.35V243.34a8.35,8.35,0,0,1,16.7,0V316a8.34,8.34,0,0,1-8.35,8.35Z" transform="translate(-57.12 -188.11)"/><path class="cls-22" d="M734.86,235a8.35,8.35,0,0,0-8.35,8.35v8.35h16.7v-8.35a8.35,8.35,0,0,0-8.35-8.35" transform="translate(-57.12 -188.11)"/><path class="cls-10" d="M840,251.69H791.59a8.35,8.35,0,0,1,0-16.7H840a8.35,8.35,0,1,1,0,16.7Z" transform="translate(-57.12 -188.11)"/><path class="cls-9" d="M840,324.32H791.59a8.35,8.35,0,1,1,0-16.69H840a8.35,8.35,0,1,1,0,16.69Z" transform="translate(-57.12 -188.11)"/><path class="cls-12" d="M791.59,324.32a8.35,8.35,0,0,1-8.35-8.35V243.34a8.35,8.35,0,0,1,16.7,0V316a8.35,8.35,0,0,1-8.35,8.35" transform="translate(-57.12 -188.11)"/><path class="cls-23" d="M791.59,235a8.35,8.35,0,0,0,0,16.7h8.35v-8.35a8.35,8.35,0,0,0-8.35-8.35" transform="translate(-57.12 -188.11)"/><path class="cls-13" d="M799.94,307.63h-8.35a8.35,8.35,0,1,0,8.35,8.34v-8.34" transform="translate(-57.12 -188.11)"/><path class="cls-21" d="M832.92,271.31h-33V288h33a8.35,8.35,0,1,0,0-16.69" transform="translate(-57.12 -188.11)"/><path class="cls-24" d="M799.94,271.31h-8.35a8.35,8.35,0,1,0,0,16.69h8.35V271.31" transform="translate(-57.12 -188.11)"/><path class="cls-14" d="M907.25,251.68a12.89,12.89,0,0,1,0,25.78h-2.07v16.69A29.62,29.62,0,1,0,907.25,235Z" transform="translate(-57.12 -188.11)"/><path class="cls-15" d="M872.29,324.32a8.35,8.35,0,0,1-8.35-8.35V243.34a8.35,8.35,0,0,1,16.7,0V316a8.35,8.35,0,0,1-8.35,8.35Z" transform="translate(-57.12 -188.11)"/><path class="cls-16" d="M928.49,324.32a8.31,8.31,0,0,1-6.61-3.24l-23.32-30.17a8.35,8.35,0,0,1,13.21-10.21l23.32,30.17a8.34,8.34,0,0,1-6.6,13.45Z" transform="translate(-57.12 -188.11)"/><polygon class="cls-25" points="847.94 89.34 823.51 89.34 823.51 106.04 848.05 106.04 847.94 89.34"/><path class="cls-26" d="M880.64,277.46h-8.35a8.35,8.35,0,1,0,0,16.69h8.35V277.46" transform="translate(-57.12 -188.11)"/><path class="cls-17" d="M907.25,251.68H880.64v-8.34a8.35,8.35,0,0,0-16.7,0h0a8.35,8.35,0,0,1,8.35-8.35h35Z" transform="translate(-57.12 -188.11)"/><path class="cls-27" d="M872.29,235a8.35,8.35,0,1,0,0,16.69h8.35v-8.34a8.35,8.35,0,0,0-8.35-8.35" transform="translate(-57.12 -188.11)"/><path class="cls-16" d="M905.16,277.45h-.1c.18,0,.28,0,.1,0" transform="translate(-57.12 -188.11)"/><path class="cls-28" d="M905.16,277.46a8.27,8.27,0,0,0-2.75.46,8.35,8.35,0,0,1,2.75-.46m-2.75.46h0m-2.72,1.58a8.2,8.2,0,0,0-2,2.59,8.49,8.49,0,0,1,2-2.59m-2.87,6a8.29,8.29,0,0,0,.27,2.47,8.52,8.52,0,0,1-.27-2.47m.27,2.49s0,0,0,0" transform="translate(-57.12 -188.11)"/><path class="cls-28" d="M898.62,291l2.44,3.16h4.1a8.32,8.32,0,0,1-6.54-3.16" transform="translate(-57.12 -188.11)"/><path class="cls-29" d="M905.69,277.47a8.51,8.51,0,0,1,3.08.8,8.4,8.4,0,0,0-3.08-.8m5.76,2.84c.21.24.38.47.38.47-.12-.16-.25-.31-.38-.47" transform="translate(-57.12 -188.11)"/><path class="cls-19" d="M907.25,235h0a8.35,8.35,0,1,0,0,16.69h0a8.35,8.35,0,1,0,0-16.69" transform="translate(-57.12 -188.11)"/><path class="cls-29" d="M902.41,277.92h0m0,0a8.39,8.39,0,0,0-2.7,1.57,8.29,8.29,0,0,1,2.7-1.57m-4.71,4.16a8.32,8.32,0,0,0-.86,3.38,8.49,8.49,0,0,1,.86-3.38m-.59,5.85h0m0,0a8.34,8.34,0,0,0,1.53,3,8.41,8.41,0,0,1-1.53-3" transform="translate(-57.12 -188.11)"/><path class="cls-18" d="M911.83,280.78l-6.67,13.37A31.13,31.13,0,0,0,920,291.29l-8.12-10.51" transform="translate(-57.12 -188.11)"/><path class="cls-30" d="M903.37,294a8.35,8.35,0,1,1,10-6.35,8.36,8.36,0,0,1-10,6.35Z" transform="translate(-57.12 -188.11)"/><text class="cls-31" transform="translate(456.13 189.35)">W<tspan class="cls-32" x="39.68" y="0">e’re MAKER</tspan></text><path class="cls-33" d="M312.94,254.2a19.89,19.89,0,0,1-13.86-5.59A70.06,70.06,0,0,0,250.29,229a20,20,0,0,1,0-40,109.85,109.85,0,0,1,76.52,30.83,20,20,0,0,1-13.87,34.41Z" transform="translate(-57.12 -188.11)"/><g class="cls-34"><path class="cls-35" d="M271.12,390.43a20,20,0,0,1-20,20A110.5,110.5,0,0,1,140.75,300.06a20,20,0,0,1,40,0,70.45,70.45,0,0,0,70.37,70.37A20,20,0,0,1,271.12,390.43Z" transform="translate(-57.12 -188.11)"/></g><g class="cls-34"><path class="cls-36" d="M140.75,298.49A110.5,110.5,0,0,1,251.12,188.11a20,20,0,0,1,0,40,70.45,70.45,0,0,0-70.37,70.38,20,20,0,0,1-40,0Z" transform="translate(-57.12 -188.11)"/></g><g class="cls-34"><path class="cls-33" d="M250.29,409.7a20,20,0,0,1,0-40,70.08,70.08,0,0,0,48.13-19,20,20,0,0,1,27.38,29.17A110,110,0,0,1,250.29,409.7Z" transform="translate(-57.12 -188.11)"/></g><g class="cls-34"><g class="cls-34"><path class="cls-37" d="M271.12,299.27a20,20,0,0,1-20,20h-174a20,20,0,0,1,0-40h174A20,20,0,0,1,271.12,299.27Z" transform="translate(-57.12 -188.11)"/></g></g><g class="cls-34"><path class="cls-36" d="M297.69,379.4l-61.61-67.16c-7.21-7.86-6.45-20.28,1.69-27.75s20.58-7.15,27.79.71l61.6,67.16c7.21,7.86,6.46,20.29-1.68,27.75S304.9,387.26,297.69,379.4Z" transform="translate(-57.12 -188.11)"/></g><g class="cls-34"><path class="cls-35" d="M327.8,247.52l-62.55,65.91c-7.32,7.71-19.75,7.8-27.76.2s-8.57-20-1.25-27.74L298.79,220c7.32-7.71,19.75-7.8,27.76-.2S335.12,239.8,327.8,247.52Z" transform="translate(-57.12 -188.11)"/></g></g></g></svg>